<svg version="1.1" xmlns="http://www.w3.org/2000/svg" xmlns:xlink="http://www.w3.org/1999/xlink" width="24" height="24" viewBox="0,0,256,256"><g fill="#0070ff" fill-rule="evenodd" stroke="none" stroke-width="1" stroke-linecap="butt" stroke-linejoin="miter" stroke-miterlimit="10" stroke-dasharray="" stroke-dashoffset="0" font-family="none" font-weight="none" font-size="none" text-anchor="none" style="mix-blend-mode: normal"><g transform="translate(4.49578,-2.3103) scale(10.66667,10.66667)"><path d="M18.4831,19.7901l0.0007,-0.0017l0.0174,-0.0435l2.9988,-15.1191v-0.04911c0,-0.3767 -0.1392,-0.70556 -0.4421,-0.90282c-0.2651,-0.17266 -0.5698,-0.18495 -0.7835,-0.16873c-0.2261,0.01715 -0.4392,0.07357 -0.5867,0.12053c-0.0759,0.02416 -0.1394,0.04744 -0.1849,0.06504c-0.0228,0.00884 -0.0413,0.01634 -0.0547,0.02192l-0.0132,0.00556l-16.71982,6.55891l-0.0046,0.0017c-0.00903,0.0033 -0.02097,0.0077 -0.0354,0.0133c-0.02875,0.0112 -0.06789,0.0272 -0.11387,0.0481c-0.09028,0.0409 -0.21502,0.104 -0.34152,0.1907c-0.21485,0.1471 -0.62397,0.4954 -0.55489,1.0476c0.05722,0.4575 0.37253,0.748 0.5851,0.8984c0.11394,0.0806 0.22296,0.1387 0.30279,0.1767c0.04044,0.0193 0.0748,0.034 0.10039,0.0445c0.01283,0.0052 0.02355,0.0094 0.03185,0.0125l0.01063,0.004l0.00679,0.0025l2.92524,0.9848c-0.00987,0.1835 0.00833,0.3707 0.057,0.5553l1.46529,5.5584c0.17373,0.6591 0.76996,1.1181 1.45153,1.1177c0.61093,-0.0005 1.15276,-0.3701 1.38294,-0.9215l2.28765,-2.4461l3.929,3.0123l0.0559,0.0243c0.3569,0.1558 0.6905,0.2052 0.9954,0.1635c0.3045,-0.0416 0.5464,-0.1693 0.7282,-0.3147c0.1789,-0.1431 0.3014,-0.3046 0.3785,-0.4262c0.0392,-0.0618 0.0684,-0.1161 0.0886,-0.1569c0.0102,-0.0205 0.0182,-0.0379 0.0242,-0.0514l0.0076,-0.0175l0.0027,-0.0064zM7.13499,13.8748c-0.0333,-0.1263 0.01898,-0.2597 0.12927,-0.3297l9.92204,-6.3009c0,0 0.5836,-0.3543 0.5627,0c0,0 0.1042,0.06256 -0.2086,0.35429c-0.2966,0.27708 -7.0716,6.81811 -7.75718,7.48001c-0.03957,0.0382 -0.06319,0.082 -0.07714,0.1352l-1.1058,4.2195z"></path></g></g></svg>